<?xml version="1.0" standalone="no"?>
<!DOCTYPE svg PUBLIC "-//W3C//DTD SVG 20010904//EN"
 "http://www.w3.org/TR/2001/REC-SVG-20010904/DTD/svg10.dtd">
<svg version="1.0" xmlns="http://www.w3.org/2000/svg"
 width="109.000000pt" height="109.000000pt" viewBox="0 0 109.000000 109.000000"
 preserveAspectRatio="xMidYMid meet">

<g transform="translate(0.000000,109.000000) scale(0.100000,-0.100000)"
fill="#000000" stroke="none">
<path d="M560 666 c0 -8 12 -28 26 -45 l26 -31 -91 0 c-54 0 -91 -4 -91 -10 0
-6 37 -10 91 -10 l91 0 -26 -31 c-26 -31 -34 -59 -17 -59 5 0 12 9 16 20 3 11
23 33 43 50 l37 30 -37 30 c-20 17 -40 39 -43 50 -7 23 -25 27 -25 6z"/>
</g>
</svg>
