<?xml version="1.0" standalone="no"?>
<!DOCTYPE svg PUBLIC "-//W3C//DTD SVG 20010904//EN"
 "http://www.w3.org/TR/2001/REC-SVG-20010904/DTD/svg10.dtd">
<svg version="1.0" xmlns="http://www.w3.org/2000/svg"
 width="109.000000pt" height="112.000000pt" viewBox="0 0 109.000000 112.000000"
 preserveAspectRatio="xMidYMid meet">

<g transform="translate(0.000000,112.000000) scale(0.100000,-0.100000)"
fill="#000000" stroke="none">
<path d="M505 670 c-3 -11 -23 -33 -43 -50 l-37 -30 37 -30 c20 -17 40 -39 43
-50 4 -11 11 -20 16 -20 17 0 9 28 -17 59 l-26 31 91 0 c54 0 91 4 91 10 0 6
-37 10 -91 10 l-91 0 26 31 c26 31 34 59 17 59 -5 0 -12 -9 -16 -20z"/>
</g>
</svg>
