<svg width="46" height="46" viewBox="0 0 46 46" fill="none" xmlns="http://www.w3.org/2000/svg">
<g filter="url(#filter0_d_18_88)">
<g filter="url(#filter1_i_18_88)">
<path d="M34 16.5C34 23.4036 28.4036 29 21.5 29C14.5964 29 9 23.4036 9 16.5C9 9.59644 14.5964 4 21.5 4C28.4036 4 34 9.59644 34 16.5Z" fill="url(#paint0_linear_18_88)"/>
</g>
<g filter="url(#filter2_bii_18_88)">
<path fill-rule="evenodd" clip-rule="evenodd" d="M16.5 34C23.4036 34 29 28.4036 29 21.5C29 14.5964 23.4036 9 16.5 9C9.59644 9 4 14.5964 4 21.5C4 28.4036 9.59644 34 16.5 34ZM9 18.4686C9 16.0046 11.0046 14 13.4686 14H19.5314C21.9954 14 24 16.0046 24 18.4686V24.5314C24 26.9954 21.9954 29 19.5314 29H13.4686C11.0046 29 9 26.9954 9 24.5314V18.4686ZM19.5314 27.491C21.1659 27.491 22.491 26.1659 22.491 24.5314V18.4686C22.491 16.834 21.1659 15.509 19.5314 15.509H13.4686C11.8341 15.509 10.509 16.834 10.509 18.4686V24.5314C10.509 26.1659 11.8341 27.491 13.4686 27.491H19.5314ZM21.3167 17.6496C21.3167 18.163 20.9005 18.5792 20.387 18.5792C19.8736 18.5792 19.4574 18.163 19.4574 17.6496C19.4574 17.1362 19.8736 16.72 20.387 16.72C20.9005 16.72 21.3167 17.1362 21.3167 17.6496ZM16.5 17.6205C14.3608 17.6205 12.6205 19.3608 12.6205 21.5C12.6205 23.6391 14.3608 25.3795 16.5 25.3795C18.6392 25.3795 20.3795 23.6391 20.3795 21.5C20.3795 19.3608 18.6392 17.6205 16.5 17.6205ZM16.5 23.8705C15.1908 23.8705 14.1295 22.8092 14.1295 21.5C14.1295 20.1908 15.1908 19.1295 16.5 19.1295C17.8092 19.1295 18.8705 20.1908 18.8705 21.5C18.8705 22.8092 17.8092 23.8705 16.5 23.8705Z" fill="white" fill-opacity="0.4"/>
</g>
</g>
<defs>
<filter id="filter0_d_18_88" x="0" y="0" width="46" height="46" filterUnits="userSpaceOnUse" color-interpolation-filters="sRGB">
<feFlood flood-opacity="0" result="BackgroundImageFix"/>
<feColorMatrix in="SourceAlpha" type="matrix" values="0 0 0 0 0 0 0 0 0 0 0 0 0 0 0 0 0 0 127 0" result="hardAlpha"/>
<feOffset dx="4" dy="4"/>
<feGaussianBlur stdDeviation="4"/>
<feColorMatrix type="matrix" values="0 0 0 0 0.991667 0 0 0 0 0.501783 0 0 0 0 0.347083 0 0 0 0.4 0"/>
<feBlend mode="normal" in2="BackgroundImageFix" result="effect1_dropShadow_18_88"/>
<feBlend mode="normal" in="SourceGraphic" in2="effect1_dropShadow_18_88" result="shape"/>
</filter>
<filter id="filter1_i_18_88" x="9" y="4" width="25" height="25" filterUnits="userSpaceOnUse" color-interpolation-filters="sRGB">
<feFlood flood-opacity="0" result="BackgroundImageFix"/>
<feBlend mode="normal" in="SourceGraphic" in2="BackgroundImageFix" result="shape"/>
<feColorMatrix in="SourceAlpha" type="matrix" values="0 0 0 0 0 0 0 0 0 0 0 0 0 0 0 0 0 0 127 0" result="hardAlpha"/>
<feOffset/>
<feGaussianBlur stdDeviation="4"/>
<feComposite in2="hardAlpha" operator="arithmetic" k2="-1" k3="1"/>
<feColorMatrix type="matrix" values="0 0 0 0 1 0 0 0 0 1 0 0 0 0 1 0 0 0 0.8 0"/>
<feBlend mode="normal" in2="shape" result="effect1_innerShadow_18_88"/>
</filter>
<filter id="filter2_bii_18_88" x="0" y="5" width="33" height="33" filterUnits="userSpaceOnUse" color-interpolation-filters="sRGB">
<feFlood flood-opacity="0" result="BackgroundImageFix"/>
<feGaussianBlur in="BackgroundImage" stdDeviation="2"/>
<feComposite in2="SourceAlpha" operator="in" result="effect1_backgroundBlur_18_88"/>
<feBlend mode="normal" in="SourceGraphic" in2="effect1_backgroundBlur_18_88" result="shape"/>
<feColorMatrix in="SourceAlpha" type="matrix" values="0 0 0 0 0 0 0 0 0 0 0 0 0 0 0 0 0 0 127 0" result="hardAlpha"/>
<feOffset/>
<feGaussianBlur stdDeviation="2"/>
<feComposite in2="hardAlpha" operator="arithmetic" k2="-1" k3="1"/>
<feColorMatrix type="matrix" values="0 0 0 0 1 0 0 0 0 1 0 0 0 0 1 0 0 0 1 0"/>
<feBlend mode="normal" in2="shape" result="effect2_innerShadow_18_88"/>
<feColorMatrix in="SourceAlpha" type="matrix" values="0 0 0 0 0 0 0 0 0 0 0 0 0 0 0 0 0 0 127 0" result="hardAlpha"/>
<feOffset dy="4"/>
<feGaussianBlur stdDeviation="4"/>
<feComposite in2="hardAlpha" operator="arithmetic" k2="-1" k3="1"/>
<feColorMatrix type="matrix" values="0 0 0 0 1 0 0 0 0 1 0 0 0 0 1 0 0 0 1 0"/>
<feBlend mode="normal" in2="effect2_innerShadow_18_88" result="effect3_innerShadow_18_88"/>
</filter>
<linearGradient id="paint0_linear_18_88" x1="21.5" y1="28.9272" x2="21.5" y2="4.19418" gradientUnits="userSpaceOnUse">
<stop stop-color="#E09B3D"/>
<stop offset="0.3" stop-color="#C74C4D"/>
<stop offset="0.6" stop-color="#C21975"/>
<stop offset="1" stop-color="#7024C4"/>
</linearGradient>
</defs>
</svg>
